# xmcd
#
# Track frame offsets:
#	150
#	12925
#	23823
#	42197
#	59064
#	75890
#	92842
#	107552
#	129268
#	143661
#	160207
#	173703
#	189628
#	207240
#	217172
#	232638
#	253161
#	268620
#	286081
#	311428
#	336492
#
# Disc length: 4687 seconds
#
# Revision: 1
# Processed by: cddbd v1.5.2PL0 Copyright (c) Steve Scherf et al.
# Submitted via: EasyCDDAExtractor 6.5.0.1
#
DISCID=21124d15
DTITLE=Emmylou Harris - Songbird - Rare Tracks and Forgotten Gems - D1
DYEAR=2007
DGENRE=Country
TTITLE0=Clocks
TTITLE1=The Angels Rejoiced Last Night
TTITLE2=The Old Country Baptizing
TTITLE3=Coat of Many Colors
TTITLE4=For No One
TTITLE5=Ooh Las Vegas
TTITLE6=Satan's Jeweled Crown
TTITLE7=Tulsa Queen
TTITLE8=My Songbird
TTITLE9=Green Rolling Hills
TTITLE10=One Paper Kid
TTITLE11=Sorrow in the Wind
TTITLE12=Rough and Rocky
TTITLE13=Jordan
TTITLE14=The Darkest Hour Is Just Before Dawn
TTITLE15=Ashes by Now
TTITLE16=How High the Moon
TTITLE17=Spanish Johnny
TTITLE18=The Last Cheaters Waltz
TTITLE19=Racing in the Streets
TTITLE20=Like an Old Fashioned Waltz
EXTD=
EXTT0=
EXTT1=
EXTT2=
EXTT3=
EXTT4=
EXTT5=
EXTT6=
EXTT7=
EXTT8=
EXTT9=
EXTT10=
EXTT11=
EXTT12=
EXTT13=
EXTT14=
EXTT15=
EXTT16=
EXTT17=
EXTT18=
EXTT19=
EXTT20=
PLAYORDER=
